NotoSerifBengali-ExtraCondensedBold.ufo
<glyph name="slash" format="2">
  <advance width="235"/>
  <unicode hex="002F"/>
  <outline>
    <contour>
      <point x="0" y="-121" type="line"/>
      <point x="61" y="-121" type="line"/>
      <point x="235" y="760" type="line"/>
      <point x="177" y="760" type="line"/>
    </contour>
  </outline>
</glyph>
<glyph name="candrabindu-beng" format="2">
  <unicode hex="0981"/>
  <anchor x="0" y="622" name="_top"/>
  <outline>
    <contour>
      <point x="-13" y="709" type="curve" smooth="yes"/>
      <point x="69" y="709"/>
      <point x="114" y="770"/>
      <point x="126" y="890" type="curve"/>
      <point x="88" y="903" type="line"/>
      <point x="74" y="839"/>
      <point x="41" y="798"/>
      <point x="-14" y="798" type="curve" smooth="yes"/>
      <point x="-66" y="798"/>
      <point x="-104" y="839"/>
      <point x="-118" y="903" type="curve"/>
      <point x="-156" y="890" type="line"/>
      <point x="-146" y="773"/>
      <point x="-95" y="709"/>
    </contour>
    <contour>
      <point x="-15" y="837" type="curve" smooth="yes"/>
      <point x="17" y="837"/>
      <point x="38" y="859"/>
      <point x="38" y="895" type="curve" smooth="yes"/>
      <point x="38" y="930"/>
      <point x="17" y="953"/>
      <point x="-15" y="953" type="curve" smooth="yes"/>
      <point x="-49" y="953"/>
      <point x="-70" y="930"/>
      <point x="-70" y="895" type="curve" smooth="yes"/>
      <point x="-70" y="859"/>
      <point x="-49" y="837"/>
    </contour>
  </outline>
</glyph>
<glyph name="i-beng" format="2">
  <advance width="419"/>
  <unicode hex="0987"/>
  <anchor x="278" y="52" name="bottom"/>
  <anchor x="392" y="-84" name="bottom.rakaar"/>
  <anchor x="352" y="48" name="bottom.rvocalic"/>
  <anchor x="269" y="55" name="bottom.virama"/>
  <anchor x="305" y="610" name="top"/>
  <anchor x="257" y="612" name="topright"/>
  <anchor x="209" y="0" name="vedic"/>
  <outline>
    <contour>
      <point x="321" y="598" type="curve"/>
      <point x="375" y="598" type="line"/>
      <point x="370" y="748"/>
      <point x="322" y="813"/>
      <point x="236" y="813" type="curve" smooth="yes"/>
      <point x="190" y="813"/>
      <point x="160" y="803"/>
      <point x="115" y="803" type="curve" smooth="yes"/>
      <point x="57" y="803"/>
      <point x="32" y="826"/>
      <point x="32" y="885" type="curve" smooth="yes"/>
      <point x="32" y="898"/>
      <point x="33" y="913"/>
      <point x="35" y="926" type="curve"/>
      <point x="-12" y="932" type="line"/>
      <point x="-17" y="908"/>
      <point x="-19" y="881"/>
      <point x="-19" y="858" type="curve" smooth="yes"/>
      <point x="-19" y="758"/>
      <point x="27" y="696"/>
      <point x="122" y="696" type="curve" smooth="yes"/>
      <point x="176" y="696"/>
      <point x="207" y="706"/>
      <point x="244" y="706" type="curve" smooth="yes"/>
      <point x="288" y="706"/>
      <point x="317" y="682"/>
    </contour>
    <component base="ha-beng"/>
  </outline>
</glyph>
<glyph name="ai-beng" format="2">
  <advance width="633"/>
  <unicode hex="0990"/>
  <anchor x="449" y="603" name="top"/>
  <anchor x="408" y="599" name="topright"/>
  <anchor x="316" y="0" name="vedic"/>
  <anchor x="500" y="0" name="bottom"/>
  <anchor x="500" y="-5" name="bottom.rvocalic"/>
  <anchor x="484" y="8" name="bottom.virama"/>
  <outline>
    <contour>
      <point x="478" y="308" type="line"/>
      <point x="538" y="371"/>
      <point x="587" y="448"/>
      <point x="587" y="567" type="curve" smooth="yes"/>
      <point x="587" y="732"/>
      <point x="470" y="765"/>
      <point x="361" y="787" type="curve" smooth="yes"/>
      <point x="273" y="805"/>
      <point x="196" y="821"/>
      <point x="196" y="908" type="curve" smooth="yes"/>
      <point x="196" y="938"/>
      <point x="203" y="970"/>
      <point x="214" y="995" type="curve"/>
      <point x="164" y="1012" type="line"/>
      <point x="146" y="969"/>
      <point x="134" y="927"/>
      <point x="134" y="878" type="curve" smooth="yes"/>
      <point x="134" y="744"/>
      <point x="227" y="708"/>
      <point x="344" y="686" type="curve" smooth="yes"/>
      <point x="447" y="667"/>
      <point x="529" y="657"/>
      <point x="529" y="554" type="curve" smooth="yes"/>
      <point x="529" y="487"/>
      <point x="507" y="441"/>
      <point x="457" y="396" type="curve"/>
    </contour>
    <component base="e-beng"/>
  </outline>
</glyph>
<glyph name="au-beng" format="2">
  <advance width="658"/>
  <unicode hex="0994"/>
  <anchor x="569" y="7" name="bottom"/>
  <anchor x="628" y="-1" name="bottom.rakaar"/>
  <anchor x="552" y="33" name="bottom.rvocalic"/>
  <anchor x="489" y="7" name="bottom.virama"/>
  <anchor x="596" y="603" name="top"/>
  <anchor x="535" y="599" name="topright"/>
  <anchor x="329" y="0" name="vedic"/>
  <outline>
    <contour>
      <point x="503" y="308" type="line"/>
      <point x="564" y="371"/>
      <point x="612" y="448"/>
      <point x="612" y="567" type="curve" smooth="yes"/>
      <point x="612" y="731"/>
      <point x="496" y="765"/>
      <point x="387" y="787" type="curve" smooth="yes"/>
      <point x="299" y="805"/>
      <point x="222" y="821"/>
      <point x="222" y="908" type="curve" smooth="yes"/>
      <point x="222" y="938"/>
      <point x="229" y="970"/>
      <point x="239" y="995" type="curve"/>
      <point x="189" y="1012" type="line"/>
      <point x="172" y="969"/>
      <point x="160" y="927"/>
      <point x="160" y="878" type="curve" smooth="yes"/>
      <point x="160" y="744"/>
      <point x="253" y="708"/>
      <point x="370" y="686" type="curve" smooth="yes"/>
      <point x="473" y="667"/>
      <point x="555" y="657"/>
      <point x="555" y="554" type="curve" smooth="yes"/>
      <point x="555" y="487"/>
      <point x="533" y="441"/>
      <point x="483" y="396" type="curve"/>
    </contour>
    <component base="o-beng"/>
  </outline>
</glyph>
<glyph name="nya-beng" format="2">
  <advance width="782"/>
  <unicode hex="099E"/>
  <anchor x="495" y="29" name="bottom"/>
  <anchor x="497" y="82" name="bottom.rakaar"/>
  <anchor x="499" y="2" name="bottom.rvocalic"/>
  <anchor x="483" y="9" name="bottom.virama"/>
  <anchor x="393" y="582" name="top"/>
  <anchor x="393" y="571" name="topright"/>
  <anchor x="391" y="0" name="vedic"/>
  <outline>
    <contour>
      <point x="627" y="29" type="curve" smooth="yes"/>
      <point x="707" y="29"/>
      <point x="746" y="99"/>
      <point x="746" y="183" type="curve" smooth="yes"/>
      <point x="746" y="237"/>
      <point x="728" y="295"/>
      <point x="684" y="335" type="curve"/>
      <point x="701" y="288" type="line"/>
      <point x="725" y="317"/>
      <point x="745" y="370"/>
      <point x="745" y="435" type="curve" smooth="yes"/>
      <point x="745" y="525"/>
      <point x="703" y="597"/>
      <point x="634" y="597" type="curve" smooth="yes"/>
      <point x="534" y="597"/>
      <point x="478" y="452"/>
      <point x="471" y="368" type="curve"/>
      <point x="471" y="262" type="line"/>
      <point x="486" y="138"/>
      <point x="541" y="29"/>
    </contour>
    <contour>
      <point x="619" y="139" type="curve" smooth="yes"/>
      <point x="561" y="139"/>
      <point x="506" y="215"/>
      <point x="506" y="309" type="curve" smooth="yes"/>
      <point x="506" y="395"/>
      <point x="557" y="497"/>
      <point x="627" y="497" type="curve" smooth="yes"/>
      <point x="651" y="497"/>
      <point x="669" y="479"/>
      <point x="669" y="445" type="curve" smooth="yes"/>
      <point x="669" y="408"/>
      <point x="642" y="374"/>
      <point x="613" y="358" type="curve"/>
      <point x="663" y="349" type="line"/>
      <point x="647" y="373"/>
      <point x="629" y="389"/>
      <point x="599" y="389" type="curve" smooth="yes"/>
      <point x="561" y="389"/>
      <point x="536" y="357"/>
      <point x="536" y="311" type="curve" smooth="yes"/>
      <point x="536" y="261"/>
      <point x="565" y="232"/>
      <point x="604" y="232" type="curve" smooth="yes"/>
      <point x="638" y="232"/>
      <point x="664" y="249"/>
      <point x="686" y="278" type="curve"/>
      <point x="644" y="302" type="line"/>
      <point x="659" y="284"/>
      <point x="681" y="257"/>
      <point x="681" y="217" type="curve" smooth="yes"/>
      <point x="681" y="167"/>
      <point x="657" y="139"/>
    </contour>
    <component base="e-beng"/>
  </outline>
</glyph>
<glyph name="rVocalicMatra-beng" format="2">
  <unicode hex="09C3"/>
  <anchor x="0" y="0" name="_bottom.rvocalic"/>
  <outline>
    <contour>
      <point x="13" y="-281" type="curve"/>
      <point x="43" y="-237" type="line"/>
      <point x="11" y="-195"/>
      <point x="-52" y="-132"/>
      <point x="-130" y="-85" type="curve"/>
      <point x="-120" y="-116" type="line"/>
      <point x="-87" y="-84"/>
      <point x="-38" y="-55"/>
      <point x="0" y="-32" type="curve"/>
      <point x="0" y="-11" type="line"/>
      <point x="-53" y="44" type="line"/>
      <point x="-107" y="15"/>
      <point x="-186" y="-33"/>
      <point x="-245" y="-84" type="curve"/>
      <point x="-193" y="-154" type="line"/>
      <point x="-104" y="-182"/>
      <point x="-40" y="-226"/>
    </contour>
  </outline>
</glyph>
<glyph name="two-beng" format="2">
  <advance width="429"/>
  <unicode hex="09E8"/>
  <outline>
    <contour>
      <point x="432" y="-81" type="curve"/>
      <point x="467" y="-37" type="line"/>
      <point x="387" y="57"/>
      <point x="277" y="151"/>
      <point x="178" y="179" type="curve"/>
      <point x="175" y="134" type="line"/>
      <point x="186" y="131"/>
      <point x="209" y="129"/>
      <point x="230" y="129" type="curve" smooth="yes"/>
      <point x="339" y="129"/>
      <point x="402" y="187"/>
      <point x="402" y="281" type="curve" smooth="yes"/>
      <point x="402" y="353"/>
      <point x="367" y="400"/>
      <point x="275" y="429" type="curve" smooth="yes"/>
      <point x="196" y="454"/>
      <point x="171" y="468"/>
      <point x="168" y="506" type="curve"/>
      <point x="124" y="506" type="line"/>
      <point x="131" y="488"/>
      <point x="148" y="480"/>
      <point x="169" y="480" type="curve" smooth="yes"/>
      <point x="210" y="480"/>
      <point x="232" y="509"/>
      <point x="232" y="553" type="curve" smooth="yes"/>
      <point x="232" y="596"/>
      <point x="206" y="633"/>
      <point x="148" y="633" type="curve" smooth="yes"/>
      <point x="89" y="633"/>
      <point x="45" y="584"/>
      <point x="45" y="510" type="curve" smooth="yes"/>
      <point x="45" y="431"/>
      <point x="91" y="381"/>
      <point x="201" y="354" type="curve" smooth="yes"/>
      <point x="285" y="332"/>
      <point x="324" y="331"/>
      <point x="324" y="290" type="curve" smooth="yes"/>
      <point x="324" y="249"/>
      <point x="271" y="233"/>
      <point x="210" y="233" type="curve" smooth="yes"/>
      <point x="151" y="233"/>
      <point x="92" y="251"/>
      <point x="56" y="277" type="curve"/>
      <point x="82" y="127" type="line"/>
      <point x="189" y="91"/>
      <point x="296" y="49"/>
    </contour>
  </outline>
</glyph>
<glyph name="three-beng" format="2">
  <advance width="528"/>
  <unicode hex="09E9"/>
  <outline>
    <contour>
      <point x="310" y="15" type="curve" smooth="yes"/>
      <point x="425" y="15"/>
      <point x="506" y="102"/>
      <point x="506" y="273" type="curve" smooth="yes"/>
      <point x="506" y="434"/>
      <point x="426" y="545"/>
      <point x="297" y="545" type="curve" smooth="yes"/>
      <point x="213" y="545"/>
      <point x="164" y="491"/>
      <point x="164" y="414" type="curve" smooth="yes"/>
      <point x="164" y="347"/>
      <point x="205" y="294"/>
      <point x="275" y="294" type="curve" smooth="yes"/>
      <point x="340" y="294"/>
      <point x="373" y="341"/>
      <point x="373" y="397" type="curve" smooth="yes"/>
      <point x="373" y="438"/>
      <point x="351" y="471"/>
      <point x="337" y="488" type="curve"/>
      <point x="301" y="414" type="line"/>
      <point x="311" y="421"/>
      <point x="330" y="428"/>
      <point x="352" y="428" type="curve" smooth="yes"/>
      <point x="400" y="428"/>
      <point x="433" y="387"/>
      <point x="433" y="298" type="curve" smooth="yes"/>
      <point x="433" y="205"/>
      <point x="390" y="142"/>
      <point x="305" y="142" type="curve" smooth="yes"/>
      <point x="193" y="142"/>
      <point x="118" y="230"/>
      <point x="64" y="497" type="curve"/>
      <point x="10" y="484" type="line"/>
      <point x="64" y="153"/>
      <point x="151" y="15"/>
    </contour>
  </outline>
</glyph>
<glyph name="four-beng" format="2">
  <advance width="449"/>
  <unicode hex="09EA"/>
  <outline>
    <contour>
      <point x="232" y="-20" type="curve" smooth="yes"/>
      <point x="344" y="-20"/>
      <point x="410" y="54"/>
      <point x="410" y="146" type="curve" smooth="yes"/>
      <point x="410" y="233"/>
      <point x="352" y="276"/>
      <point x="277" y="321" type="curve"/>
      <point x="234" y="284" type="line"/>
      <point x="280" y="254"/>
      <point x="305" y="211"/>
      <point x="305" y="164" type="curve" smooth="yes"/>
      <point x="305" y="104"/>
      <point x="260" y="65"/>
      <point x="211" y="65" type="curve" smooth="yes"/>
      <point x="168" y="65"/>
      <point x="139" y="88"/>
      <point x="139" y="134" type="curve" smooth="yes"/>
      <point x="139" y="188"/>
      <point x="188" y="215"/>
      <point x="274" y="265" type="curve" smooth="yes"/>
      <point x="361" y="316"/>
      <point x="397" y="361"/>
      <point x="397" y="451" type="curve" smooth="yes"/>
      <point x="397" y="559"/>
      <point x="309" y="616"/>
      <point x="215" y="616" type="curve" smooth="yes"/>
      <point x="110" y="616"/>
      <point x="55" y="545"/>
      <point x="55" y="464" type="curve" smooth="yes"/>
      <point x="55" y="366"/>
      <point x="135" y="327"/>
      <point x="177" y="299" type="curve"/>
      <point x="211" y="336" type="line"/>
      <point x="185" y="365"/>
      <point x="163" y="404"/>
      <point x="163" y="453" type="curve" smooth="yes"/>
      <point x="163" y="506"/>
      <point x="193" y="536"/>
      <point x="236" y="536" type="curve" smooth="yes"/>
      <point x="281" y="536"/>
      <point x="303" y="512"/>
      <point x="303" y="474" type="curve" smooth="yes"/>
      <point x="303" y="429"/>
      <point x="273" y="400"/>
      <point x="197" y="361" type="curve" smooth="yes"/>
      <point x="91" y="306"/>
      <point x="40" y="260"/>
      <point x="40" y="161" type="curve" smooth="yes"/>
      <point x="40" y="41"/>
      <point x="136" y="-20"/>
    </contour>
  </outline>
</glyph>
<glyph name="five-beng" format="2">
  <advance width="466"/>
  <unicode hex="09EB"/>
  <outline>
    <contour>
      <point x="288" y="-18" type="curve" smooth="yes"/>
      <point x="349" y="-18"/>
      <point x="405" y="3"/>
      <point x="448" y="49" type="curve"/>
      <point x="419" y="113" type="line"/>
      <point x="361" y="119"/>
      <point x="344" y="156"/>
      <point x="344" y="204" type="curve" smooth="yes"/>
      <point x="344" y="280"/>
      <point x="397" y="331"/>
      <point x="447" y="351" type="curve"/>
      <point x="409" y="432" type="line"/>
      <point x="372" y="425"/>
      <point x="322" y="432"/>
      <point x="322" y="495" type="curve" smooth="yes"/>
      <point x="322" y="518"/>
      <point x="328" y="540"/>
      <point x="341" y="555" type="curve"/>
      <point x="338" y="592"/>
      <point x="323" y="622"/>
      <point x="273" y="622" type="curve" smooth="yes"/>
      <point x="166" y="622"/>
      <point x="34" y="476"/>
      <point x="34" y="286" type="curve" smooth="yes"/>
      <point x="34" y="99"/>
      <point x="162" y="-18"/>
    </contour>
    <contour>
      <point x="266" y="75" type="curve" smooth="yes"/>
      <point x="191" y="75"/>
      <point x="141" y="141"/>
      <point x="141" y="256" type="curve" smooth="yes"/>
      <point x="141" y="380"/>
      <point x="198" y="480"/>
      <point x="281" y="512" type="curve"/>
      <point x="260" y="540" type="line"/>
      <point x="248" y="524"/>
      <point x="240" y="499"/>
      <point x="240" y="481" type="curve" smooth="yes"/>
      <point x="240" y="398"/>
      <point x="324" y="385"/>
      <point x="352" y="385" type="curve"/>
      <point x="323" y="409" type="line"/>
      <point x="278" y="376"/>
      <point x="242" y="310"/>
      <point x="242" y="235" type="curve" smooth="yes"/>
      <point x="242" y="161"/>
      <point x="280" y="98"/>
      <point x="350" y="82" type="curve"/>
      <point x="341" y="100" type="line"/>
      <point x="316" y="86"/>
      <point x="291" y="75"/>
    </contour>
  </outline>
</glyph>
<glyph name="six-beng" format="2">
  <advance width="548"/>
  <unicode hex="09EC"/>
  <outline>
    <contour>
      <point x="323" y="-11" type="curve" smooth="yes"/>
      <point x="455" y="-11"/>
      <point x="521" y="87"/>
      <point x="521" y="226" type="curve" smooth="yes"/>
      <point x="521" y="333"/>
      <point x="482" y="407"/>
      <point x="432" y="457" type="curve"/>
      <point x="393" y="377"/>
      <point x="353" y="334"/>
      <point x="321" y="334" type="curve" smooth="yes"/>
      <point x="309" y="334"/>
      <point x="295" y="342"/>
      <point x="295" y="364" type="curve" smooth="yes"/>
      <point x="295" y="518" type="line" smooth="yes"/>
      <point x="295" y="583"/>
      <point x="262" y="632"/>
      <point x="199" y="632" type="curve" smooth="yes"/>
      <point x="151" y="632"/>
      <point x="121" y="600"/>
      <point x="121" y="553" type="curve" smooth="yes"/>
      <point x="121" y="505"/>
      <point x="150" y="474"/>
      <point x="193" y="474" type="curve" smooth="yes"/>
      <point x="235" y="474"/>
      <point x="248" y="507"/>
      <point x="249" y="536" type="curve"/>
      <point x="209" y="513" type="line"/>
      <point x="209" y="360" type="line" smooth="yes"/>
      <point x="209" y="315"/>
      <point x="220" y="283"/>
      <point x="244" y="258" type="curve" smooth="yes"/>
      <point x="268" y="233"/>
      <point x="294" y="221"/>
      <point x="331" y="221" type="curve" smooth="yes"/>
      <point x="387" y="221"/>
      <point x="443" y="268"/>
      <point x="476" y="341" type="curve"/>
      <point x="427" y="325" type="line"/>
      <point x="445" y="306"/>
      <point x="456" y="277"/>
      <point x="456" y="243" type="curve" smooth="yes"/>
      <point x="456" y="163"/>
      <point x="405" y="113"/>
      <point x="325" y="113" type="curve" smooth="yes"/>
      <point x="186" y="113"/>
      <point x="125" y="235"/>
      <point x="92" y="464" type="curve"/>
      <point x="37" y="454" type="line"/>
      <point x="70" y="141"/>
      <point x="152" y="-11"/>
    </contour>
  </outline>
</glyph>
<glyph name="rupeemark-beng" format="2">
  <advance width="432"/>
  <unicode hex="09F2"/>
  <outline>
    <contour>
      <point x="355" y="6" type="curve"/>
      <point x="411" y="24" type="line"/>
      <point x="320" y="348"/>
      <point x="166" y="478"/>
      <point x="79" y="553" type="curve"/>
      <point x="48" y="414" type="line"/>
      <point x="118" y="363"/>
      <point x="256" y="276"/>
    </contour>
  </outline>
</glyph>
<glyph name="isshar-beng" format="2">
  <advance width="456"/>
  <unicode hex="09FA"/>
  <outline>
    <contour>
      <point x="178" y="147" type="curve" smooth="yes"/>
      <point x="288" y="147"/>
      <point x="360" y="247"/>
      <point x="431" y="504" type="curve"/>
      <point x="375" y="517" type="line"/>
      <point x="314" y="322"/>
      <point x="250" y="271"/>
      <point x="183" y="271" type="curve" smooth="yes"/>
      <point x="106" y="271"/>
      <point x="78" y="341"/>
      <point x="78" y="427" type="curve" smooth="yes"/>
      <point x="78" y="435"/>
      <point x="78" y="443"/>
      <point x="79" y="451" type="curve"/>
      <point x="27" y="446" type="line"/>
      <point x="24" y="422"/>
      <point x="22" y="396"/>
      <point x="22" y="371" type="curve" smooth="yes"/>
      <point x="22" y="241"/>
      <point x="71" y="147"/>
    </contour>
    <contour>
      <point x="196" y="342" type="curve" smooth="yes"/>
      <point x="231" y="342"/>
      <point x="257" y="368"/>
      <point x="257" y="411" type="curve" smooth="yes"/>
      <point x="257" y="452"/>
      <point x="231" y="480"/>
      <point x="196" y="480" type="curve" smooth="yes"/>
      <point x="160" y="480"/>
      <point x="133" y="452"/>
      <point x="133" y="411" type="curve" smooth="yes"/>
      <point x="133" y="368"/>
      <point x="162" y="342"/>
    </contour>
  </outline>
</glyph>
<glyph name="uni09FD" format="2">
  <advance width="390"/>
  <unicode hex="09FD"/>
  <outline>
    <contour>
      <point x="186" y="276" type="curve" smooth="yes"/>
      <point x="224" y="276"/>
      <point x="256" y="292"/>
      <point x="279" y="318" type="curve" smooth="yes"/>
      <point x="304" y="344"/>
      <point x="320" y="383"/>
      <point x="320" y="426" type="curve" smooth="yes"/>
      <point x="320" y="501"/>
      <point x="274" y="563"/>
      <point x="203" y="563" type="curve" smooth="yes"/>
      <point x="166" y="563"/>
      <point x="134" y="546"/>
      <point x="111" y="521" type="curve" smooth="yes"/>
      <point x="86" y="493"/>
      <point x="70" y="455"/>
      <point x="70" y="414" type="curve" smooth="yes"/>
      <point x="70" y="338"/>
      <point x="116" y="276"/>
    </contour>
    <contour>
      <point x="198" y="329" type="curve" smooth="yes"/>
      <point x="161" y="329"/>
      <point x="139" y="373"/>
      <point x="139" y="424" type="curve" smooth="yes"/>
      <point x="139" y="473"/>
      <point x="159" y="511"/>
      <point x="194" y="511" type="curve" smooth="yes"/>
      <point x="231" y="511"/>
      <point x="251" y="467"/>
      <point x="251" y="416" type="curve" smooth="yes"/>
      <point x="251" y="367"/>
      <point x="232" y="329"/>
    </contour>
  </outline>
</glyph>
<glyph name="uni1CD8" format="2">
  <unicode hex="1CD8"/>
  <note>
uni1CD8
</note>
  <anchor x="-299" y="420" name="_vedic"/>
  <outline>
    <contour>
      <point x="-292" y="-259" type="curve" smooth="yes"/>
      <point x="-193" y="-259"/>
      <point x="-150" y="-189"/>
      <point x="-136" y="-78" type="curve"/>
      <point x="-227" y="-59" type="line"/>
      <point x="-235" y="-142"/>
      <point x="-260" y="-183"/>
      <point x="-316" y="-183" type="curve" smooth="yes"/>
      <point x="-370" y="-183"/>
      <point x="-402" y="-136"/>
      <point x="-412" y="-58" type="curve"/>
      <point x="-462" y="-70" type="line"/>
      <point x="-450" y="-176"/>
      <point x="-404" y="-259"/>
    </contour>
  </outline>
</glyph>
<glyph name="uni1CF5" format="2">
  <advance width="418"/>
  <unicode hex="1CF5"/>
  <outline>
    <contour>
      <point x="369" y="454" type="line"/>
      <point x="312" y="492" type="line"/>
      <point x="220" y="356" type="line"/>
      <point x="126" y="494" type="line"/>
      <point x="40" y="438" type="line"/>
      <point x="159" y="271" type="line"/>
      <point x="50" y="118" type="line"/>
      <point x="106" y="80" type="line"/>
      <point x="199" y="216" type="line"/>
      <point x="292" y="79" type="line"/>
      <point x="378" y="135" type="line"/>
      <point x="259" y="301" type="line"/>
    </contour>
  </outline>
</glyph>
<glyph name="d-beng" format="2">
  <advance width="358"/>
  <outline>
    <contour>
      <point x="256" y="134" type="curve"/>
      <point x="303" y="147" type="line"/>
      <point x="298" y="182"/>
      <point x="295" y="214"/>
      <point x="295" y="245" type="curve" smooth="yes"/>
      <point x="295" y="318"/>
      <point x="311" y="376"/>
      <point x="341" y="433" type="curve"/>
      <point x="250" y="514" type="line"/>
      <point x="198" y="477"/>
      <point x="137" y="411"/>
      <point x="99" y="353" type="curve"/>
      <point x="117" y="326" type="line"/>
      <point x="117" y="550" type="line"/>
      <point x="389" y="550" type="line"/>
      <point x="350" y="622" type="line"/>
      <point x="-31" y="622" type="line"/>
      <point x="8" y="550" type="line"/>
      <point x="38" y="550" type="line"/>
      <point x="38" y="277" type="line"/>
      <point x="119" y="220" type="line"/>
      <point x="166" y="288"/>
      <point x="227" y="358"/>
      <point x="285" y="408" type="curve"/>
      <point x="248" y="435" type="line"/>
      <point x="236" y="389"/>
      <point x="228" y="341"/>
      <point x="228" y="293" type="curve" smooth="yes"/>
      <point x="228" y="240"/>
      <point x="237" y="186"/>
    </contour>
  </outline>
</glyph>
<glyph name="ddNukta_ba-beng" format="2">
  <advance width="436"/>
  <anchor x="349" y="-200" name="bottom"/>
  <anchor x="354" y="-152" name="bottom.rakaar"/>
  <anchor x="354" y="-235" name="bottom.rvocalic"/>
  <anchor x="339" y="-226" name="bottom.virama"/>
  <anchor x="223" y="583" name="top"/>
  <anchor x="224" y="571" name="topright"/>
  <outline>
    <contour>
      <point x="247" y="131" type="curve" smooth="yes"/>
      <point x="350" y="131"/>
      <point x="401" y="210"/>
      <point x="401" y="321" type="curve" smooth="yes"/>
      <point x="401" y="407"/>
      <point x="370" y="467"/>
      <point x="333" y="507" type="curve"/>
      <point x="299" y="441"/>
      <point x="269" y="415"/>
      <point x="249" y="415" type="curve" smooth="yes"/>
      <point x="242" y="415"/>
      <point x="231" y="419"/>
      <point x="231" y="438" type="curve" smooth="yes"/>
      <point x="231" y="550" type="line"/>
      <point x="467" y="550" type="line"/>
      <point x="429" y="622" type="line"/>
      <point x="-31" y="622" type="line"/>
      <point x="7" y="550" type="line"/>
      <point x="154" y="550" type="line"/>
      <point x="154" y="430" type="line" smooth="yes"/>
      <point x="154" y="392"/>
      <point x="162" y="364"/>
      <point x="182" y="342" type="curve" smooth="yes"/>
      <point x="202" y="319"/>
      <point x="224" y="308"/>
      <point x="253" y="308" type="curve" smooth="yes"/>
      <point x="297" y="308"/>
      <point x="341" y="344"/>
      <point x="359" y="402" type="curve"/>
      <point x="327" y="391" type="line"/>
      <point x="338" y="376"/>
      <point x="346" y="356"/>
      <point x="346" y="334" type="curve" smooth="yes"/>
      <point x="346" y="279"/>
      <point x="308" y="243"/>
      <point x="249" y="243" type="curve" smooth="yes"/>
      <point x="145" y="243"/>
      <point x="101" y="337"/>
      <point x="79" y="504" type="curve"/>
      <point x="31" y="495" type="line"/>
      <point x="54" y="254"/>
      <point x="112" y="131"/>
    </contour>
    <contour>
      <point x="92" y="29" type="curve" smooth="yes"/>
      <point x="125" y="29"/>
      <point x="152" y="56"/>
      <point x="152" y="98" type="curve" smooth="yes"/>
      <point x="152" y="141"/>
      <point x="126" y="168"/>
      <point x="92" y="168" type="curve" smooth="yes"/>
      <point x="57" y="168"/>
      <point x="30" y="141"/>
      <point x="30" y="98" type="curve" smooth="yes"/>
      <point x="30" y="57"/>
      <point x="57" y="29"/>
    </contour>
    <contour>
      <point x="345" y="-264" type="line"/>
      <point x="354" y="-262" type="line"/>
      <point x="354" y="226" type="line"/>
      <point x="279" y="205" type="line"/>
      <point x="279" y="-180" type="line"/>
      <point x="290" y="-168" type="line"/>
      <point x="262" y="-95"/>
      <point x="202" y="-60"/>
      <point x="143" y="-48" type="curve"/>
      <point x="159" y="-87" type="line"/>
      <point x="191" y="-57"/>
      <point x="247" y="-30"/>
      <point x="296" y="-11" type="curve"/>
      <point x="289" y="97" type="line"/>
      <point x="220" y="70"/>
      <point x="141" y="34"/>
      <point x="74" y="-13" type="curve"/>
      <point x="130" y="-132" type="line"/>
      <point x="192" y="-139"/>
      <point x="245" y="-164"/>
      <point x="282" y="-223" type="curve"/>
    </contour>
  </outline>
</glyph>
<glyph name="ddNukta_ra-beng" format="2">
  <advance width="415"/>
  <anchor x="366" y="-144" name="bottom"/>
  <anchor x="371" y="-172" name="bottom.rvocalic"/>
  <anchor x="355" y="-159" name="bottom.virama"/>
  <anchor x="214" y="583" name="top"/>
  <anchor x="214" y="571" name="topright"/>
  <outline>
    <contour>
      <point x="245" y="133" type="curve" smooth="yes"/>
      <point x="348" y="133"/>
      <point x="395" y="211"/>
      <point x="395" y="325" type="curve" smooth="yes"/>
      <point x="395" y="409"/>
      <point x="364" y="473"/>
      <point x="327" y="514" type="curve"/>
      <point x="295" y="453"/>
      <point x="266" y="427"/>
      <point x="245" y="427" type="curve" smooth="yes"/>
      <point x="235" y="427"/>
      <point x="226" y="432"/>
      <point x="226" y="447" type="curve" smooth="yes"/>
      <point x="226" y="550" type="line"/>
      <point x="446" y="550" type="line"/>
      <point x="407" y="622" type="line"/>
      <point x="-31" y="622" type="line"/>
      <point x="7" y="550" type="line"/>
      <point x="147" y="550" type="line"/>
      <point x="147" y="426" type="line" smooth="yes"/>
      <point x="147" y="387"/>
      <point x="160" y="361"/>
      <point x="180" y="340" type="curve" smooth="yes"/>
      <point x="198" y="321"/>
      <point x="223" y="309"/>
      <point x="251" y="309" type="curve" smooth="yes"/>
      <point x="287" y="309"/>
      <point x="335" y="342"/>
      <point x="359" y="406" type="curve"/>
      <point x="319" y="419" type="line"/>
      <point x="332" y="397"/>
      <point x="342" y="375"/>
      <point x="342" y="343" type="curve" smooth="yes"/>
      <point x="342" y="283"/>
      <point x="297" y="250"/>
      <point x="245" y="250" type="curve" smooth="yes"/>
      <point x="146" y="250"/>
      <point x="101" y="330"/>
      <point x="67" y="510" type="curve"/>
      <point x="17" y="498" type="line"/>
      <point x="52" y="263"/>
      <point x="111" y="133"/>
    </contour>
    <contour>
      <point x="363" y="-196" type="line"/>
      <point x="371" y="-194" type="line"/>
      <point x="371" y="253" type="line"/>
      <point x="305" y="198" type="line"/>
      <point x="305" y="23" type="line" smooth="yes"/>
      <point x="305" y="-13"/>
      <point x="306" y="-61"/>
      <point x="311" y="-92" type="curve"/>
      <point x="284" y="-40"/>
      <point x="258" y="-23"/>
      <point x="215" y="-23" type="curve" smooth="yes"/>
      <point x="188" y="-23"/>
      <point x="167" y="-28"/>
      <point x="140" y="-28" type="curve" smooth="yes"/>
      <point x="95" y="-28"/>
      <point x="77" y="6"/>
      <point x="77" y="57" type="curve" smooth="yes"/>
      <point x="77" y="79"/>
      <point x="80" y="105"/>
      <point x="86" y="132" type="curve"/>
      <point x="41" y="142" type="line"/>
      <point x="30" y="100"/>
      <point x="24" y="57"/>
      <point x="24" y="18" type="curve" smooth="yes"/>
      <point x="24" y="-67"/>
      <point x="58" y="-133"/>
      <point x="138" y="-133" type="curve" smooth="yes"/>
      <point x="181" y="-133"/>
      <point x="206" y="-122"/>
      <point x="241" y="-122" type="curve" smooth="yes"/>
      <point x="275" y="-122"/>
      <point x="295" y="-132"/>
      <point x="316" y="-166" type="curve"/>
    </contour>
    <contour>
      <point x="205" y="-2" type="curve" smooth="yes"/>
      <point x="235" y="-2"/>
      <point x="259" y="21"/>
      <point x="259" y="59" type="curve" smooth="yes"/>
      <point x="259" y="96"/>
      <point x="236" y="120"/>
      <point x="205" y="120" type="curve" smooth="yes"/>
      <point x="173" y="120"/>
      <point x="151" y="96"/>
      <point x="151" y="59" type="curve" smooth="yes"/>
      <point x="151" y="22"/>
      <point x="174" y="-2"/>
    </contour>
  </outline>
</glyph>
<glyph name="g-beng" format="2">
  <advance width="320"/>
  <outline>
    <contour>
      <point x="172" y="133" type="line"/>
      <point x="288" y="190"/>
      <point x="323" y="263"/>
      <point x="323" y="342" type="curve" smooth="yes"/>
      <point x="323" y="416"/>
      <point x="280" y="473"/>
      <point x="209" y="473" type="curve" smooth="yes"/>
      <point x="170" y="473"/>
      <point x="139" y="459"/>
      <point x="117" y="437" type="curve"/>
      <point x="132" y="423" type="line"/>
      <point x="142" y="485"/>
      <point x="183" y="534"/>
      <point x="234" y="534" type="curve" smooth="yes"/>
      <point x="286" y="534"/>
      <point x="337" y="490"/>
      <point x="391" y="338" type="curve"/>
      <point x="422" y="377" type="line"/>
      <point x="377" y="544"/>
      <point x="305" y="634"/>
      <point x="199" y="634" type="curve" smooth="yes"/>
      <point x="117" y="634"/>
      <point x="38" y="568"/>
      <point x="-5" y="428" type="curve"/>
      <point x="101" y="350" type="line"/>
      <point x="120" y="380"/>
      <point x="154" y="403"/>
      <point x="185" y="403" type="curve" smooth="yes"/>
      <point x="215" y="403"/>
      <point x="230" y="386"/>
      <point x="230" y="359" type="curve" smooth="yes"/>
      <point x="230" y="314"/>
      <point x="185" y="280"/>
      <point x="104" y="249" type="curve"/>
    </contour>
  </outline>
</glyph>
<glyph name="iiMatra_reph_candrabindu-beng" format="2">
  <advance width="195"/>
  <anchor x="116" y="679" name="top"/>
  <anchor x="-6" y="613" name="topright"/>
  <anchor x="-197" y="0" name="vedic"/>
  <outline>
    <contour>
      <point x="-6" y="847" type="curve" smooth="yes"/>
      <point x="70" y="847"/>
      <point x="112" y="904"/>
      <point x="122" y="1015" type="curve"/>
      <point x="87" y="1027" type="line"/>
      <point x="74" y="968"/>
      <point x="44" y="929"/>
      <point x="-8" y="929" type="curve" smooth="yes"/>
      <point x="-56" y="929"/>
      <point x="-91" y="967"/>
      <point x="-103" y="1027" type="curve"/>
      <point x="-139" y="1015" type="line"/>
      <point x="-129" y="907"/>
      <point x="-83" y="847"/>
    </contour>
    <contour>
      <point x="-9" y="962" type="curve" smooth="yes"/>
      <point x="21" y="962"/>
      <point x="40" y="983"/>
      <point x="40" y="1016" type="curve" smooth="yes"/>
      <point x="40" y="1048"/>
      <point x="21" y="1069"/>
      <point x="-9" y="1069" type="curve" smooth="yes"/>
      <point x="-40" y="1069"/>
      <point x="-60" y="1048"/>
      <point x="-60" y="1016" type="curve" smooth="yes"/>
      <point x="-60" y="983"/>
      <point x="-40" y="962"/>
    </contour>
    <component base="iiMatra-beng"/>
    <component base="reph-beng" xOffset="78" yOffset="-49"/>
  </outline>
</glyph>
<glyph name="l-beng" format="2">
  <advance width="411"/>
  <outline>
    <contour>
      <point x="174" y="94" type="curve" smooth="yes"/>
      <point x="230" y="94"/>
      <point x="262" y="130"/>
      <point x="262" y="188" type="curve" smooth="yes"/>
      <point x="262" y="242"/>
      <point x="235" y="279"/>
      <point x="187" y="279" type="curve" smooth="yes"/>
      <point x="148" y="279"/>
      <point x="120" y="247"/>
      <point x="120" y="199" type="curve" smooth="yes"/>
      <point x="120" y="179"/>
      <point x="125" y="159"/>
      <point x="141" y="146" type="curve"/>
      <point x="169" y="190" type="line"/>
      <point x="160" y="184"/>
      <point x="151" y="181"/>
      <point x="138" y="181" type="curve" smooth="yes"/>
      <point x="113" y="181"/>
      <point x="91" y="212"/>
      <point x="91" y="263" type="curve" smooth="yes"/>
      <point x="91" y="323"/>
      <point x="124" y="357"/>
      <point x="172" y="357" type="curve" smooth="yes"/>
      <point x="222" y="357"/>
      <point x="260" y="326"/>
      <point x="277" y="264" type="curve"/>
      <point x="300" y="256" type="line"/>
      <point x="300" y="317"/>
      <point x="316" y="349"/>
      <point x="342" y="349" type="curve" smooth="yes"/>
      <point x="368" y="349"/>
      <point x="396" y="314"/>
      <point x="412" y="229" type="curve"/>
      <point x="441" y="251" type="line"/>
      <point x="419" y="393"/>
      <point x="380" y="478"/>
      <point x="318" y="478" type="curve" smooth="yes"/>
      <point x="276" y="478"/>
      <point x="246" y="430"/>
      <point x="245" y="349" type="curve"/>
      <point x="268" y="348" type="line"/>
      <point x="252" y="424"/>
      <point x="207" y="486"/>
      <point x="141" y="486" type="curve" smooth="yes"/>
      <point x="68" y="486"/>
      <point x="17" y="421"/>
      <point x="17" y="307" type="curve" smooth="yes"/>
      <point x="17" y="178"/>
      <point x="87" y="94"/>
    </contour>
    <contour>
      <point x="4" y="550" type="line"/>
      <point x="438" y="550" type="line"/>
      <point x="402" y="622" type="line"/>
      <point x="-31" y="622" type="line"/>
    </contour>
  </outline>
</glyph>
<glyph name="m-beng" format="2">
  <advance width="478"/>
  <outline>
    <contour>
      <point x="355" y="283" type="curve" smooth="yes"/>
      <point x="410" y="283"/>
      <point x="452" y="328"/>
      <point x="452" y="416" type="curve" smooth="yes"/>
      <point x="452" y="480"/>
      <point x="425" y="531"/>
      <point x="394" y="575" type="curve"/>
      <point x="336" y="554" type="line"/>
      <point x="355" y="535"/>
      <point x="366" y="500"/>
      <point x="366" y="465" type="curve" smooth="yes"/>
      <point x="366" y="424"/>
      <point x="350" y="401"/>
      <point x="320" y="401" type="curve" smooth="yes"/>
      <point x="251" y="401"/>
      <point x="225" y="500"/>
      <point x="123" y="500" type="curve" smooth="yes"/>
      <point x="60" y="500"/>
      <point x="24" y="455"/>
      <point x="24" y="393" type="curve" smooth="yes"/>
      <point x="24" y="333"/>
      <point x="57" y="288"/>
      <point x="113" y="288" type="curve" smooth="yes"/>
      <point x="166" y="288"/>
      <point x="194" y="330"/>
      <point x="194" y="391" type="curve" smooth="yes"/>
      <point x="194" y="481"/>
      <point x="159" y="536"/>
      <point x="131" y="566" type="curve"/>
      <point x="20" y="566" type="line"/>
      <point x="69" y="544"/>
      <point x="118" y="511"/>
      <point x="127" y="447" type="curve"/>
      <point x="159" y="415" type="line"/>
      <point x="245" y="415"/>
      <point x="248" y="283"/>
    </contour>
    <contour>
      <point x="7" y="550" type="line"/>
      <point x="507" y="550" type="line"/>
      <point x="469" y="622" type="line"/>
      <point x="-29" y="622" type="line"/>
    </contour>
  </outline>
</glyph>
<glyph name="ra-beng.blwf" format="2">
  <anchor x="3" y="0" name="_bottom.rakaar"/>
  <anchor x="3" y="-222" name="bottom"/>
  <anchor x="3" y="-227" name="bottom.rvocalic"/>
  <outline>
    <contour>
      <point x="-9" y="-248" type="line"/>
      <point x="0" y="-246" type="line"/>
      <point x="0" y="126" type="line"/>
      <point x="-86" y="126" type="line"/>
      <point x="-86" y="16" type="line" smooth="yes"/>
      <point x="-86" y="-28"/>
      <point x="-81" y="-89"/>
      <point x="-75" y="-126" type="curve"/>
      <point x="-98" y="-60"/>
      <point x="-136" y="-39"/>
      <point x="-179" y="-39" type="curve" smooth="yes"/>
      <point x="-218" y="-39"/>
      <point x="-249" y="-46"/>
      <point x="-295" y="-46" type="curve" smooth="yes"/>
      <point x="-352" y="-46"/>
      <point x="-386" y="-23"/>
      <point x="-386" y="55" type="curve" smooth="yes"/>
      <point x="-386" y="86"/>
      <point x="-382" y="117"/>
      <point x="-374" y="146" type="curve"/>
      <point x="-428" y="155" type="line"/>
      <point x="-439" y="113"/>
      <point x="-446" y="64"/>
      <point x="-446" y="19" type="curve" smooth="yes"/>
      <point x="-446" y="-127"/>
      <point x="-370" y="-166"/>
      <point x="-291" y="-166" type="curve" smooth="yes"/>
      <point x="-234" y="-166"/>
      <point x="-201" y="-153"/>
      <point x="-151" y="-153" type="curve" smooth="yes"/>
      <point x="-109" y="-153"/>
      <point x="-88" y="-168"/>
      <point x="-62" y="-215" type="curve"/>
    </contour>
  </outline>
</glyph>
<glyph name="tta_auLength-beng" format="2">
  <advance width="620"/>
  <anchor x="286" y="9" name="bottom"/>
  <anchor x="346" y="2" name="bottom.rakaar"/>
  <anchor x="287" y="9" name="bottom.rvocalic"/>
  <anchor x="245" y="29" name="bottom.virama"/>
  <anchor x="327" y="679" name="top"/>
  <anchor x="262" y="641" name="topright"/>
  <anchor x="310" y="0" name="vedic"/>
  <anchor x="196" y="-100" name="nukta"/>
  <outline>
    <contour>
      <point x="329" y="598" type="curve"/>
      <point x="383" y="598" type="line"/>
      <point x="382" y="664"/>
      <point x="371" y="708"/>
      <point x="354" y="741" type="curve"/>
      <point x="342" y="717" type="line"/>
      <point x="363" y="727"/>
      <point x="384" y="730"/>
      <point x="410" y="730" type="curve" smooth="yes"/>
      <point x="461" y="730"/>
      <point x="484" y="696"/>
      <point x="484" y="634" type="curve" smooth="yes"/>
      <point x="484" y="623"/>
      <point x="483" y="613"/>
      <point x="481" y="603" type="curve"/>
      <point x="564" y="603" type="line"/>
      <point x="561" y="745"/>
      <point x="491" y="828"/>
      <point x="385" y="828" type="curve" smooth="yes"/>
      <point x="305" y="828"/>
      <point x="242" y="802"/>
      <point x="131" y="802" type="curve" smooth="yes"/>
      <point x="63" y="802"/>
      <point x="40" y="829"/>
      <point x="40" y="886" type="curve" smooth="yes"/>
      <point x="40" y="897"/>
      <point x="41" y="912"/>
      <point x="44" y="926" type="curve"/>
      <point x="-3" y="932" type="line"/>
      <point x="-8" y="907"/>
      <point x="-10" y="882"/>
      <point x="-10" y="858" type="curve" smooth="yes"/>
      <point x="-10" y="761"/>
      <point x="37" y="697"/>
      <point x="131" y="697" type="curve" smooth="yes"/>
      <point x="181" y="697"/>
      <point x="221" y="707"/>
      <point x="256" y="707" type="curve" smooth="yes"/>
      <point x="293" y="707"/>
      <point x="325" y="683"/>
    </contour>
    <contour>
      <point x="557" y="-35" type="line"/>
      <point x="565" y="-33" type="line"/>
      <point x="565" y="550" type="line"/>
      <point x="651" y="550" type="line"/>
      <point x="613" y="622" type="line"/>
      <point x="370" y="622" type="line"/>
      <point x="432" y="550" type="line"/>
      <point x="480" y="550" type="line"/>
      <point x="480" y="1" type="line"/>
    </contour>
    <component base="ddha-beng"/>
  </outline>
</glyph>
<glyph name="yNukta_ba-beng" format="2">
  <advance width="468"/>
  <anchor x="408" y="-215" name="bottom"/>
  <anchor x="412" y="-157" name="bottom.rakaar"/>
  <anchor x="412" y="-233" name="bottom.rvocalic"/>
  <anchor x="397" y="-231" name="bottom.virama"/>
  <anchor x="385" y="583" name="top"/>
  <anchor x="386" y="571" name="topright"/>
  <outline>
    <contour>
      <point x="337" y="94" type="curve"/>
      <point x="412" y="94" type="line"/>
      <point x="412" y="550" type="line"/>
      <point x="498" y="550" type="line"/>
      <point x="460" y="622" type="line"/>
      <point x="-31" y="622" type="line"/>
      <point x="43" y="470" type="line"/>
      <point x="101" y="461"/>
      <point x="160" y="441"/>
      <point x="186" y="406" type="curve"/>
      <point x="193" y="438" type="line"/>
      <point x="154" y="418"/>
      <point x="69" y="369"/>
      <point x="30" y="336" type="curve"/>
      <point x="91" y="210" type="line"/>
      <point x="203" y="207"/>
      <point x="291" y="163"/>
    </contour>
    <contour>
      <point x="139" y="64" type="curve" smooth="yes"/>
      <point x="167" y="64"/>
      <point x="193" y="88"/>
      <point x="193" y="124" type="curve" smooth="yes"/>
      <point x="193" y="160"/>
      <point x="169" y="185"/>
      <point x="139" y="185" type="curve" smooth="yes"/>
      <point x="107" y="185"/>
      <point x="82" y="160"/>
      <point x="82" y="124" type="curve" smooth="yes"/>
      <point x="82" y="89"/>
      <point x="109" y="64"/>
    </contour>
    <contour>
      <point x="404" y="-268" type="line"/>
      <point x="412" y="-265" type="line"/>
      <point x="412" y="245" type="line"/>
      <point x="324" y="245" type="line"/>
      <point x="324" y="-173" type="line"/>
      <point x="339" y="-155" type="line"/>
      <point x="308" y="-87"/>
      <point x="241" y="-49"/>
      <point x="173" y="-31" type="curve"/>
      <point x="190" y="-75" type="line"/>
      <point x="234" y="-39"/>
      <point x="298" y="-4"/>
      <point x="340" y="15" type="curve"/>
      <point x="332" y="131" type="line"/>
      <point x="249" y="95"/>
      <point x="175" y="56"/>
      <point x="98" y="4" type="curve"/>
      <point x="162" y="-121" type="line"/>
      <point x="235" y="-133"/>
      <point x="292" y="-157"/>
      <point x="340" y="-227" type="curve"/>
    </contour>
    <contour>
      <point x="324" y="147" type="line"/>
      <point x="337" y="164" type="line"/>
      <point x="287" y="255"/>
      <point x="207" y="292"/>
      <point x="144" y="311" type="curve"/>
      <point x="153" y="269" type="line"/>
      <point x="189" y="303"/>
      <point x="240" y="337"/>
      <point x="293" y="368" type="curve"/>
      <point x="247" y="460"/>
      <point x="201" y="517"/>
      <point x="111" y="572" type="curve"/>
      <point x="105" y="550" type="line"/>
      <point x="324" y="550" type="line"/>
    </contour>
  </outline>
</glyph>
